<mxfile host="app.diagrams.net" modified="2024-04-30T08:27:03.439Z" agent="Mozilla/5.0 (Windows NT 10.0; Win64; x64) AppleWebKit/537.36 (KHTML, like Gecko) Chrome/124.0.0.0 Safari/537.36" version="24.2.7" etag="DM0EZmN4rs4-RImvlqB1" type="github">
  <diagram name="第 1 页" id="NPNv_DvLs50-tU2mW3J_">
    <mxGraphModel>
      <root>
        <mxCell id="0" />
        <mxCell id="1" parent="0" />
      </root>
    </mxGraphModel>
  </diagram>
</mxfile>
